<svg width="36" height="36" viewBox="0 0 36 36" fill="none" xmlns="http://www.w3.org/2000/svg">
<rect x="4" y="4" width="28" height="28" rx="8" fill="#EF3125"/>
<path d="M27.6245 20.4192C27.1262 22.6027 25.904 24.5534 24.1567 25.9544C22.4094 27.3553 20.2397 28.1242 18.0001 28.1361C15.7606 28.1479 13.5828 27.402 11.8208 26.0195C10.0588 24.6371 8.81616 22.6994 8.29475 20.5213L12.6468 19.4795C12.9331 20.6756 13.6156 21.7396 14.5832 22.4988C15.5508 23.258 16.7467 23.6676 17.9765 23.6611C19.2064 23.6546 20.3979 23.2324 21.3574 22.463C22.3169 21.6937 22.988 20.6224 23.2617 19.4234L27.6245 20.4192Z" fill="white"/>
</svg>
