<svg width="36" height="36" viewBox="0 0 36 36" fill="none" xmlns="http://www.w3.org/2000/svg">
<path d="M18 13.6364C15.5891 13.6364 13.6364 15.5891 13.6364 18C13.6364 20.4109 15.5891 22.3636 18 22.3636C20.4109 22.3636 22.3636 20.4109 22.3636 18C22.3636 15.5891 20.4109 13.6364 18 13.6364ZM27.7527 16.9091C27.2509 12.36 23.64 8.74909 19.0909 8.24727V6H16.9091V8.24727C12.36 8.74909 8.74909 12.36 8.24727 16.9091H6V19.0909H8.24727C8.74909 23.64 12.36 27.2509 16.9091 27.7527V30H19.0909V27.7527C23.64 27.2509 27.2509 23.64 27.7527 19.0909H30V16.9091H27.7527ZM18 25.6364C13.7782 25.6364 10.3636 22.2218 10.3636 18C10.3636 13.7782 13.7782 10.3636 18 10.3636C22.2218 10.3636 25.6364 13.7782 25.6364 18C25.6364 22.2218 22.2218 25.6364 18 25.6364Z" fill="#1F1F1F"/>
</svg>
