<svg width="28" height="28" viewBox="0 0 28 28" fill="none" xmlns="http://www.w3.org/2000/svg">
<rect width="28" height="28" rx="8" fill="#D9D9D9"/>
<g clip-path="url(#clip0_679_3096)">
<path fill-rule="evenodd" clip-rule="evenodd" d="M21.1433 10.2763C21.2513 9.91946 21.1433 9.65723 20.6291 9.65723H18.9287C18.4963 9.65723 18.297 9.88375 18.1889 10.1335C18.1889 10.1335 17.3241 12.2212 16.0991 13.5772C15.7029 13.9698 15.5227 14.0947 15.3065 14.0947C15.1984 14.0947 15.0363 13.9698 15.0363 13.6129V10.2763C15.0363 9.84808 14.9165 9.65723 14.5562 9.65723H11.8841C11.614 9.65723 11.4515 9.85598 11.4515 10.0443C11.4515 10.4503 12.0639 10.5439 12.127 11.6859V14.1661C12.127 14.7098 12.0279 14.8084 11.8117 14.8084C11.2353 14.8084 9.83308 12.7115 9.00145 10.312C8.83847 9.84562 8.675 9.65723 8.24043 9.65723H6.54003C6.0542 9.65723 5.95703 9.88375 5.95703 10.1335C5.95703 10.5796 6.5335 12.7922 8.64118 15.7184C10.0463 17.7168 12.026 18.8001 13.8274 18.8001C14.9083 18.8001 15.042 18.5595 15.042 18.1451V16.6347C15.042 16.1535 15.1444 16.0574 15.4867 16.0574C15.7389 16.0574 16.1712 16.1824 17.18 17.1459C18.333 18.2878 18.5231 18.8001 19.1715 18.8001H20.872C21.3578 18.8001 21.6007 18.5595 21.4605 18.0847C21.3072 17.6114 20.7568 16.9249 20.0264 16.111C19.63 15.647 19.0355 15.1474 18.8553 14.8976C18.6032 14.5765 18.6752 14.4337 18.8553 14.1483C18.8553 14.1483 20.9271 11.2577 21.1433 10.2763Z" fill="#656565"/>
</g>
<defs>
<clipPath id="clip0_679_3096">
<rect width="16" height="16" fill="white" transform="translate(5.5 6)"/>
</clipPath>
</defs>
</svg>
