<svg width="28" height="28" viewBox="0 0 28 28" fill="none" xmlns="http://www.w3.org/2000/svg">
<rect width="28" height="28" rx="8" fill="#D9D9D9"/>
<path d="M20.1456 10.345C20.0867 10.1146 19.9739 9.90149 19.8164 9.72327C19.659 9.54505 19.4614 9.40683 19.24 9.32C17.0975 8.4925 13.6875 8.5 13.5 8.5C13.3125 8.5 9.9025 8.4925 7.76 9.32C7.5386 9.40683 7.34102 9.54505 7.18356 9.72327C7.0261 9.90149 6.91327 10.1146 6.85438 10.345C6.6925 10.9688 6.5 12.1088 6.5 14C6.5 15.8913 6.6925 17.0313 6.85438 17.655C6.91318 17.8855 7.02597 18.0988 7.18344 18.2771C7.3409 18.4554 7.53853 18.5937 7.76 18.6806C9.8125 19.4725 13.025 19.5 13.4587 19.5H13.5413C13.975 19.5 17.1894 19.4725 19.24 18.6806C19.4615 18.5937 19.6591 18.4554 19.8166 18.2771C19.974 18.0988 20.0868 17.8855 20.1456 17.655C20.3075 17.03 20.5 15.8913 20.5 14C20.5 12.1088 20.3075 10.9688 20.1456 10.345ZM15.6388 14.2081L12.6388 16.2081C12.6011 16.2333 12.5573 16.2477 12.5121 16.2499C12.4669 16.2521 12.4219 16.2419 12.382 16.2206C12.3421 16.1992 12.3087 16.1674 12.2855 16.1285C12.2622 16.0897 12.25 16.0453 12.25 16V12C12.25 11.9547 12.2622 11.9103 12.2855 11.8715C12.3087 11.8326 12.3421 11.8008 12.382 11.7794C12.4219 11.7581 12.4669 11.7479 12.5121 11.7501C12.5573 11.7523 12.6011 11.7668 12.6388 11.7919L15.6388 13.7919C15.673 13.8147 15.7012 13.8456 15.7206 13.8819C15.7401 13.9183 15.7502 13.9588 15.7502 14C15.7502 14.0412 15.7401 14.0817 15.7206 14.1181C15.7012 14.1544 15.673 14.1853 15.6388 14.2081Z" fill="#656565"/>
</svg>
